# xmcd
#
# Track frame offsets: 
#        182
#        17862
#        41607
#        61995
#        84630
#        106447
#        125610
#        149772
#        168230
#        191792
#        211277
#        236502
#        260305
#        278812
#        305690
#        324442
#
# Disc length: 4601 seconds
#
# Revision: 0
# Processed by: cddbd v1.5PL3 Copyright (c) Steve Scherf et al.
# Submitted via: ExactAudioCopy v0.95a3
#
DISCID=ed11f710
DTITLE=Various Artist - Ravers Paradise Vol.3 [CD1)
DYEAR=1996
DGENRE=GABBER
TTITLE0=The Hardcore Brothers - Imagination
TTITLE1=Superior feat. Lay-On and DJ Jordens - Watch This!!!
TTITLE2=Bodylotion - Something For You
TTITLE3=Byroride - Why Don't You....
TTITLE4=DJ Dione - While The Records Spins
TTITLE5=DJ Promo - Smoke Motherfuckers
TTITLE6=DJ Buzz Fuzz - Powerpunch
TTITLE7=DJ Weirdo and Mtness - Metrodome (Weird-O-Ld Skool Mix)
TTITLE8=BSE - Headache FM
TTITLE9=Psylocke - Bonehead
TTITLE10=Mr Mannix and Alopecia - The Story Teller (El Drokzoz Rmx)
TTITLE11=James Daltan - Time Bender
TTITLE12=Sounds Of Doom - Strings of Him (God Bless You)
TTITLE13=DJ Dione - Open Sesame
TTITLE14=Recharge -  Motherfucker House
TTITLE15=MC Drokz - Hardcore Murder
EXTD=
EXTT0=
EXTT1=
EXTT2=
EXTT3=
EXTT4=
EXTT5=
EXTT6=
EXTT7=
EXTT8=
EXTT9=
EXTT10=
EXTT11=
EXTT12=
EXTT13=
EXTT14=
EXTT15=
PLAYORDER=
